<svg width="189" height="26" viewBox="0 0 189 26" fill="none" xmlns="http://www.w3.org/2000/svg">
<path d="M24.31 22.382C24.446 22.6767 24.514 22.9713 24.514 23.266C24.514 23.7873 24.2987 24.2293 23.868 24.592C23.46 24.9547 22.984 25.136 22.44 25.136C22.0773 25.136 21.7373 25.0453 21.42 24.864C21.1027 24.66 20.8533 24.354 20.672 23.946L18.632 19.39H6.664L4.624 23.946C4.44267 24.354 4.19333 24.66 3.876 24.864C3.55867 25.0453 3.20733 25.136 2.822 25.136C2.30067 25.136 1.82467 24.9547 1.394 24.592C0.963333 24.2293 0.748 23.7873 0.748 23.266C0.748 22.9713 0.816 22.6767 0.952 22.382L10.336 2.22C10.54 1.76667 10.846 1.42666 11.254 1.2C11.6847 0.950666 12.138 0.825999 12.614 0.825999C13.09 0.825999 13.532 0.950666 13.94 1.2C14.3707 1.42666 14.688 1.76667 14.892 2.22L24.31 22.382ZM8.16 15.99H17.136L12.648 5.892L8.16 15.99ZM45.9744 0.859999C46.609 0.859999 47.1077 1.064 47.4704 1.472C47.8557 1.85733 48.0484 2.37867 48.0484 3.036V22.994C48.0484 23.6513 47.8557 24.184 47.4704 24.592C47.085 25 46.5864 25.204 45.9744 25.204C45.249 25.204 44.6937 24.9433 44.3084 24.422L31.8984 8.272V22.994C31.8984 23.6513 31.717 24.184 31.3544 24.592C30.9917 25 30.493 25.204 29.8584 25.204C29.2237 25.204 28.725 25 28.3624 24.592C27.9997 24.184 27.8184 23.6513 27.8184 22.994V3.036C27.8184 2.37867 28.011 1.85733 28.3964 1.472C28.7817 1.064 29.2917 0.859999 29.9264 0.859999C30.629 0.859999 31.173 1.12067 31.5584 1.642L43.9344 17.724V3.036C43.9344 2.37867 44.1157 1.85733 44.4784 1.472C44.8637 1.064 45.3624 0.859999 45.9744 0.859999ZM55.3948 25.204C54.7374 25.204 54.2048 25 53.7968 24.592C53.4114 24.184 53.2188 23.6513 53.2188 22.994V3.036C53.2188 2.37867 53.4114 1.85733 53.7968 1.472C54.2048 1.064 54.7374 0.859999 55.3948 0.859999C56.0748 0.859999 56.6074 1.064 56.9928 1.472C57.4008 1.85733 57.6048 2.37867 57.6048 3.036V22.994C57.6048 23.6513 57.4008 24.184 56.9928 24.592C56.6074 25 56.0748 25.204 55.3948 25.204ZM84.0653 0.859999C84.6999 0.859999 85.2099 1.064 85.5953 1.472C85.9806 1.85733 86.1733 2.37867 86.1733 3.036V23.164C86.1733 23.7987 85.9919 24.2973 85.6293 24.66C85.2666 25.0227 84.7906 25.204 84.2013 25.204C83.6119 25.204 83.1473 25.0227 82.8073 24.66C82.4673 24.2973 82.2973 23.7987 82.2973 23.164V9.156L76.5173 20.104C76.2453 20.6027 75.9506 20.9767 75.6333 21.226C75.3159 21.4527 74.9419 21.566 74.5113 21.566C74.0806 21.566 73.7066 21.4527 73.3893 21.226C73.0719 20.9993 72.7773 20.6253 72.5053 20.104L66.6913 9.326V23.164C66.6913 23.776 66.5099 24.2747 66.1473 24.66C65.8073 25.0227 65.3426 25.204 64.7533 25.204C64.1639 25.204 63.6993 25.0227 63.3593 24.66C63.0193 24.2973 62.8493 23.7987 62.8493 23.164V3.036C62.8493 2.37867 63.0306 1.85733 63.3933 1.472C63.7786 1.064 64.2886 0.859999 64.9233 0.859999C65.8073 0.859999 66.4986 1.34733 66.9973 2.322L74.5453 16.704L82.0593 2.322C82.5579 1.34733 83.2266 0.859999 84.0653 0.859999ZM93.4772 25C92.8198 25 92.2985 24.8187 91.9132 24.456C91.5505 24.0933 91.3692 23.5833 91.3692 22.926V3.104C91.3692 2.44667 91.5505 1.93667 91.9132 1.574C92.2985 1.21133 92.8198 1.03 93.4772 1.03H105.751C106.408 1.03 106.918 1.17733 107.281 1.472C107.644 1.76667 107.825 2.186 107.825 2.73C107.825 3.29667 107.644 3.73866 107.281 4.056C106.918 4.35067 106.408 4.498 105.751 4.498H95.6532V11.094H105.071C105.728 11.094 106.238 11.2413 106.601 11.536C106.964 11.8307 107.145 12.2613 107.145 12.828C107.145 13.372 106.964 13.7913 106.601 14.086C106.238 14.3807 105.728 14.528 105.071 14.528H95.6532V21.532H105.751C106.408 21.532 106.918 21.6907 107.281 22.008C107.644 22.3027 107.825 22.7333 107.825 23.3C107.825 23.844 107.644 24.2633 107.281 24.558C106.918 24.8527 106.408 25 105.751 25H93.4772Z" fill="black"/>
<path d="M122.695 25C122.038 25 121.528 24.8187 121.165 24.456C120.802 24.0933 120.621 23.5947 120.621 22.96V3.036C120.621 2.37867 120.814 1.85733 121.199 1.472C121.607 1.064 122.14 0.859999 122.797 0.859999C123.477 0.859999 124.01 1.064 124.395 1.472C124.803 1.85733 125.007 2.37867 125.007 3.036V21.396H134.561C135.921 21.396 136.601 21.9967 136.601 23.198C136.601 24.3993 135.921 25 134.561 25H122.695ZM141.656 25.204C140.999 25.204 140.466 25 140.058 24.592C139.673 24.184 139.48 23.6513 139.48 22.994V3.036C139.48 2.37867 139.673 1.85733 140.058 1.472C140.466 1.064 140.999 0.859999 141.656 0.859999C142.336 0.859999 142.869 1.064 143.254 1.472C143.662 1.85733 143.866 2.37867 143.866 3.036V22.994C143.866 23.6513 143.662 24.184 143.254 24.592C142.869 25 142.336 25.204 141.656 25.204ZM157.339 25.306C155.594 25.306 153.939 25.0793 152.375 24.626C150.834 24.15 149.576 23.5153 148.601 22.722C148.08 22.3367 147.819 21.7927 147.819 21.09C147.819 20.614 147.955 20.206 148.227 19.866C148.522 19.5033 148.862 19.322 149.247 19.322C149.655 19.322 150.12 19.4807 150.641 19.798C151.616 20.5007 152.636 21.0107 153.701 21.328C154.766 21.6453 155.945 21.804 157.237 21.804C158.892 21.804 160.161 21.5207 161.045 20.954C161.929 20.3647 162.371 19.5147 162.371 18.404C162.371 17.5427 161.952 16.8853 161.113 16.432C160.297 15.956 158.926 15.5027 156.999 15.072C155.004 14.6413 153.384 14.1427 152.137 13.576C150.89 13.0093 149.95 12.284 149.315 11.4C148.68 10.516 148.363 9.394 148.363 8.034C148.363 6.62867 148.76 5.37067 149.553 4.26C150.346 3.14933 151.446 2.288 152.851 1.676C154.279 1.04133 155.877 0.723998 157.645 0.723998C160.886 0.723998 163.527 1.58533 165.567 3.308C165.862 3.55733 166.066 3.80667 166.179 4.056C166.315 4.28267 166.383 4.57733 166.383 4.94C166.383 5.416 166.236 5.83533 165.941 6.198C165.669 6.538 165.34 6.708 164.955 6.708C164.728 6.708 164.513 6.674 164.309 6.606C164.128 6.538 163.878 6.41333 163.561 6.232C162.632 5.552 161.725 5.05333 160.841 4.736C159.98 4.396 158.914 4.226 157.645 4.226C156.104 4.226 154.88 4.54333 153.973 5.178C153.089 5.79 152.647 6.65133 152.647 7.762C152.647 8.69133 153.044 9.40533 153.837 9.904C154.63 10.4027 155.979 10.8673 157.883 11.298C159.9 11.7513 161.532 12.2613 162.779 12.828C164.048 13.372 165.012 14.0747 165.669 14.936C166.349 15.7973 166.689 16.874 166.689 18.166C166.689 19.5713 166.292 20.818 165.499 21.906C164.728 22.9713 163.629 23.81 162.201 24.422C160.796 25.0113 159.175 25.306 157.339 25.306ZM178.081 25.17C177.401 25.17 176.857 24.9773 176.449 24.592C176.063 24.184 175.871 23.6513 175.871 22.994V4.634H169.683C168.323 4.634 167.643 4.03333 167.643 2.832C167.643 1.63067 168.323 1.03 169.683 1.03H186.445C187.805 1.03 188.485 1.63067 188.485 2.832C188.485 4.03333 187.805 4.634 186.445 4.634H180.257V22.994C180.257 23.6513 180.053 24.184 179.645 24.592C179.259 24.9773 178.738 25.17 178.081 25.17Z" fill="#25C685"/>
</svg>
